#Comment line ignore any data following # character 
#Hierarchical Translation and Rotation (.htr) file 
[Header]	
#Header keywords are followed by a single value 
FileType HTR		#Single word string
DataType HTRS		#Translation followed by rotation and scale data
FileVersion 1		#integer
NumSegments 84		#integer
NumFrames 2		#integer
DataFrameRate 30		#integer, data frame rate in this file
EulerRotationOrder ZYX
CalibrationUnits mm
RotationUnits Degrees
GlobalAxisofGravity Y
BoneLengthAxis Y
ScaleFactor 1.00
[SegmentNames&Hierarchy]
#CHILD	PARENT
MASTER GLOBAL
root MASTER
chest root
L_mid_tent01 root
R_mid_tent01 root
spine01 root
Bip01_Neck chest
L_humerus chest
R_humerus chest
weapon_bone chest
Bip01_Head Bip01_Neck
eye_left_bone Bip01_Head
eye_right_bone Bip01_Head
L_forearm L_humerus
L_front_hand L_forearm
L_weapon_bone L_forearm
L_front_hand01_01 L_front_hand
L_front_hand02_01 L_front_hand
L_front_hand03_01 L_front_hand
L_front_hand01_02 L_front_hand01_01
L_front_hand02_02 L_front_hand02_01
L_front_hand03_02 L_front_hand03_01
R_forearm R_humerus
R_front_hand R_forearm
R_weapon_bone R_forearm
R_front_hand01_01 R_front_hand
R_front_hand02_01 R_front_hand
R_front_hand03_01 R_front_hand
R_front_hand01_02 R_front_hand01_01
R_front_hand02_02 R_front_hand02_01
R_front_hand03_02 R_front_hand03_01
null_rope01_connect L_mid_tent01
Rope1_Seg01 null_rope01_connect
Rope1_Seg02 Rope1_Seg01
Rope1_Seg03 Rope1_Seg02
Rope1_Seg04 Rope1_Seg03
Rope1_Seg05 Rope1_Seg04
Rope1_Seg06 Rope1_Seg05
Rope1_Seg07 Rope1_Seg06
Rope1_Seg09 Rope1_Seg07
L_mid_hand01 Rope1_Seg09
L_mid_hand02 Rope1_Seg09
L_mid_hand03 Rope1_Seg09
null_rope02_connect R_mid_tent01
Rope2_Seg01 null_rope02_connect
Rope2_Seg02 Rope2_Seg01
Rope2_Seg03 Rope2_Seg02
Rope2_Seg04 Rope2_Seg03
Rope2_Seg05 Rope2_Seg04
Rope2_Seg06 Rope2_Seg05
Rope2_Seg07 Rope2_Seg06
Rope2_Seg09 Rope2_Seg07
R_mid_hand01 Rope2_Seg09
R_mid_hand02 Rope2_Seg09
R_mid_hand03 Rope2_Seg09
spine02 spine01
spine03 spine02
pelvis spine03
null_rope03_connect pelvis
null_rope04_connect pelvis
Rope3_Seg01 null_rope03_connect
Rope3_Seg02 Rope3_Seg01
Rope3_Seg03 Rope3_Seg02
Rope3_Seg04 Rope3_Seg03
Rope3_Seg05 Rope3_Seg04
Rope3_Seg06 Rope3_Seg05
Rope3_Seg07 Rope3_Seg06
Rope3_Seg08 Rope3_Seg07
Rope3_Seg09 Rope3_Seg08
R_rear_hand01 Rope3_Seg09
R_rear_hand02 Rope3_Seg09
R_rear_hand03 Rope3_Seg09
Rope4_Seg01 null_rope04_connect
Rope4_Seg02 Rope4_Seg01
Rope4_Seg03 Rope4_Seg02
Rope4_Seg04 Rope4_Seg03
Rope4_Seg05 Rope4_Seg04
Rope4_Seg06 Rope4_Seg05
Rope4_Seg07 Rope4_Seg06
Rope4_Seg08 Rope4_Seg07
Rope4_Seg09 Rope4_Seg08
L_rear_hand01 Rope4_Seg09
L_rear_hand02 Rope4_Seg09
L_rear_hand03 Rope4_Seg09
[BasePosition]
#SegmentName Tx, Ty, Tz, Rx, Ry, Rz, BoneLength
MASTER 0.000000 0.000000 0.000000 -90.000000 0.000000 0.000000 10.000000 
root 0.000000 0.000000 0.000000 0.000000 0.000000 0.000000 10.000000 
chest 0.000000 0.000000 0.000000 0.000000 0.000000 0.000000 10.000000 
L_mid_tent01 0.000000 0.000000 0.000000 0.000000 0.000000 0.000000 10.000000 
R_mid_tent01 0.000000 0.000000 0.000000 0.000000 0.000000 0.000000 10.000000 
spine01 0.000000 0.000000 0.000000 0.000000 0.000000 0.000000 10.000000 
Bip01_Neck 0.000000 0.000000 0.000000 0.000000 0.000000 0.000000 10.000000 
L_humerus 0.000000 0.000000 0.000000 0.000000 0.000000 0.000000 10.000000 
R_humerus 0.000000 0.000000 0.000000 0.000000 0.000000 0.000000 10.000000 
weapon_bone 0.000000 0.000000 0.000000 0.000000 0.000000 0.000000 10.000000 
Bip01_Head 0.000000 0.000000 0.000000 0.000000 0.000000 0.000000 10.000000 
eye_left_bone 0.000000 0.000000 0.000000 0.000000 0.000000 0.000000 10.000000 
eye_right_bone 0.000000 0.000000 0.000000 0.000000 0.000000 0.000000 10.000000 
L_forearm 0.000000 0.000000 0.000000 0.000000 0.000000 0.000000 10.000000 
L_front_hand 0.000000 0.000000 0.000000 0.000000 0.000000 0.000000 10.000000 
L_weapon_bone 0.000000 0.000000 0.000000 0.000000 0.000000 0.000000 10.000000 
L_front_hand01_01 0.000000 0.000000 0.000000 0.000000 0.000000 0.000000 10.000000 
L_front_hand02_01 0.000000 0.000000 0.000000 0.000000 0.000000 0.000000 10.000000 
L_front_hand03_01 0.000000 0.000000 0.000000 0.000000 0.000000 0.000000 10.000000 
L_front_hand01_02 0.000000 0.000000 0.000000 0.000000 0.000000 0.000000 10.000000 
L_front_hand02_02 0.000000 0.000000 0.000000 0.000000 0.000000 0.000000 10.000000 
L_front_hand03_02 0.000000 0.000000 0.000000 0.000000 0.000000 0.000000 10.000000 
R_forearm 0.000000 0.000000 0.000000 0.000000 0.000000 0.000000 10.000000 
R_front_hand 0.000000 0.000000 0.000000 0.000000 0.000000 0.000000 10.000000 
R_weapon_bone 0.000000 0.000000 0.000000 0.000000 0.000000 0.000000 10.000000 
R_front_hand01_01 0.000000 0.000000 0.000000 0.000000 0.000000 0.000000 10.000000 
R_front_hand02_01 0.000000 0.000000 0.000000 0.000000 0.000000 0.000000 10.000000 
R_front_hand03_01 0.000000 0.000000 0.000000 0.000000 0.000000 0.000000 10.000000 
R_front_hand01_02 0.000000 0.000000 0.000000 0.000000 0.000000 0.000000 10.000000 
R_front_hand02_02 0.000000 0.000000 0.000000 0.000000 0.000000 0.000000 10.000000 
R_front_hand03_02 0.000000 0.000000 0.000000 0.000000 0.000000 0.000000 10.000000 
null_rope01_connect 0.000000 0.000000 0.000000 0.000000 0.000000 0.000000 10.000000 
Rope1_Seg01 0.000000 0.000000 0.000000 0.000000 0.000000 0.000000 10.000000 
Rope1_Seg02 0.000000 0.000000 0.000000 0.000000 0.000000 0.000000 10.000000 
Rope1_Seg03 0.000000 0.000000 0.000000 0.000000 0.000000 0.000000 10.000000 
Rope1_Seg04 0.000000 0.000000 0.000000 0.000000 0.000000 0.000000 10.000000 
Rope1_Seg05 0.000000 0.000000 0.000000 0.000000 0.000000 0.000000 10.000000 
Rope1_Seg06 0.000000 0.000000 0.000000 0.000000 0.000000 0.000000 10.000000 
Rope1_Seg07 0.000000 0.000000 0.000000 0.000000 0.000000 0.000000 10.000000 
Rope1_Seg09 0.000000 0.000000 0.000000 0.000000 0.000000 0.000000 10.000000 
L_mid_hand01 0.000000 0.000000 0.000000 0.000000 0.000000 0.000000 10.000000 
L_mid_hand02 0.000000 0.000000 0.000000 0.000000 0.000000 0.000000 10.000000 
L_mid_hand03 0.000000 0.000000 0.000000 0.000000 0.000000 0.000000 10.000000 
null_rope02_connect 0.000000 0.000000 0.000000 0.000000 0.000000 0.000000 10.000000 
Rope2_Seg01 0.000000 0.000000 0.000000 0.000000 0.000000 0.000000 10.000000 
Rope2_Seg02 0.000000 0.000000 0.000000 0.000000 0.000000 0.000000 10.000000 
Rope2_Seg03 0.000000 0.000000 0.000000 0.000000 0.000000 0.000000 10.000000 
Rope2_Seg04 0.000000 0.000000 0.000000 0.000000 0.000000 0.000000 10.000000 
Rope2_Seg05 0.000000 0.000000 0.000000 0.000000 0.000000 0.000000 10.000000 
Rope2_Seg06 0.000000 0.000000 0.000000 0.000000 0.000000 0.000000 10.000000 
Rope2_Seg07 0.000000 0.000000 0.000000 0.000000 0.000000 0.000000 10.000000 
Rope2_Seg09 0.000000 0.000000 0.000000 0.000000 0.000000 0.000000 10.000000 
R_mid_hand01 0.000000 0.000000 0.000000 0.000000 0.000000 0.000000 10.000000 
R_mid_hand02 0.000000 0.000000 0.000000 0.000000 0.000000 0.000000 10.000000 
R_mid_hand03 0.000000 0.000000 0.000000 0.000000 0.000000 0.000000 10.000000 
spine02 0.000000 0.000000 0.000000 0.000000 0.000000 0.000000 10.000000 
spine03 0.000000 0.000000 0.000000 0.000000 0.000000 0.000000 10.000000 
pelvis 0.000000 0.000000 0.000000 0.000000 0.000000 0.000000 10.000000 
null_rope03_connect 0.000000 0.000000 0.000000 0.000000 0.000000 0.000000 10.000000 
null_rope04_connect 0.000000 0.000000 0.000000 0.000000 0.000000 0.000000 10.000000 
Rope3_Seg01 0.000000 0.000000 0.000000 0.000000 0.000000 0.000000 10.000000 
Rope3_Seg02 0.000000 0.000000 0.000000 0.000000 0.000000 0.000000 10.000000 
Rope3_Seg03 0.000000 0.000000 0.000000 0.000000 0.000000 0.000000 10.000000 
Rope3_Seg04 0.000000 0.000000 0.000000 0.000000 0.000000 0.000000 10.000000 
Rope3_Seg05 0.000000 0.000000 0.000000 0.000000 0.000000 0.000000 10.000000 
Rope3_Seg06 0.000000 0.000000 0.000000 0.000000 0.000000 0.000000 10.000000 
Rope3_Seg07 0.000000 0.000000 0.000000 0.000000 0.000000 0.000000 10.000000 
Rope3_Seg08 0.000000 0.000000 0.000000 0.000000 0.000000 0.000000 10.000000 
Rope3_Seg09 0.000000 0.000000 0.000000 0.000000 0.000000 0.000000 10.000000 
R_rear_hand01 0.000000 0.000000 0.000000 0.000000 0.000000 0.000000 10.000000 
R_rear_hand02 0.000000 0.000000 0.000000 0.000000 0.000000 0.000000 10.000000 
R_rear_hand03 0.000000 0.000000 0.000000 0.000000 0.000000 0.000000 10.000000 
Rope4_Seg01 0.000000 0.000000 0.000000 0.000000 0.000000 0.000000 10.000000 
Rope4_Seg02 0.000000 0.000000 0.000000 0.000000 0.000000 0.000000 10.000000 
Rope4_Seg03 0.000000 0.000000 0.000000 0.000000 0.000000 0.000000 10.000000 
Rope4_Seg04 0.000000 0.000000 0.000000 0.000000 0.000000 0.000000 10.000000 
Rope4_Seg05 0.000000 0.000000 0.000000 0.000000 0.000000 0.000000 10.000000 
Rope4_Seg06 0.000000 0.000000 0.000000 0.000000 0.000000 0.000000 10.000000 
Rope4_Seg07 0.000000 0.000000 0.000000 0.000000 0.000000 0.000000 10.000000 
Rope4_Seg08 0.000000 0.000000 0.000000 0.000000 0.000000 0.000000 10.000000 
Rope4_Seg09 0.000000 0.000000 0.000000 0.000000 0.000000 0.000000 10.000000 
L_rear_hand01 0.000000 0.000000 0.000000 0.000000 0.000000 0.000000 10.000000 
L_rear_hand02 0.000000 0.000000 0.000000 0.000000 0.000000 0.000000 10.000000 
L_rear_hand03 0.000000 0.000000 0.000000 0.000000 0.000000 0.000000 10.000000 
#Beginning of Data. Separated by tabs
#Fr	Tx	Ty	Tz	Rx	Ry	Rz	SF
[MASTER]
11 -0.000127 884.371033 3571.487305 0.001660 0.001660 0.001660 3679.352539
12 -0.000143 996.345215 3858.413574 0.001660 0.001660 0.001660 3984.979248
[root]
11 -16.502293 -62.822117 1500.000000 -91.443108 -4.907892 -90.783264 1501.405640
12 -16.408331 -67.261658 1499.578247 -91.600456 -5.452754 -90.970825 1501.175659
[chest]
11 -84.512650 -34.090519 0.000000 4.160705 7.322496 -133.621384 91.129311
12 -84.512650 -34.090519 0.000000 4.601347 7.275731 -133.254745 91.129311
[L_mid_tent01]
11 27.299084 22.179190 -249.918701 -1.379267 36.511181 66.497528 252.381683
12 27.299086 22.179197 -249.918701 -0.665122 30.070936 67.683655 252.381683
[R_mid_tent01]
11 23.228794 24.509907 226.238495 173.895706 -30.891867 58.389252 228.744751
12 23.228794 24.509907 226.238495 171.962082 -27.534618 62.823994 228.744751
[spine01]
11 -0.361383 -0.195265 0.000000 0.001956 0.001298 22.850199 0.410763
12 -0.361383 -0.195265 0.000000 0.001956 0.001297 22.892246 0.410763
[Bip01_Neck]
11 165.484543 71.581718 0.000119 176.643677 -1.657967 43.431915 180.302734
12 165.484543 71.581718 0.000119 176.643677 -1.657967 43.431911 180.302734
[L_humerus]
11 -13.983130 -135.272980 -120.471481 156.317398 70.210068 -112.010254 181.680161
12 -13.983130 -135.272980 -120.471481 154.419418 71.456146 -114.104134 181.680161
[R_humerus]
11 -13.983309 -135.273102 125.287651 -172.382263 -66.903847 -92.554001 184.909012
12 -13.983309 -135.273102 125.287651 -171.346909 -69.026039 -93.756767 184.909012
[weapon_bone]
11 235.964890 -300.705902 0.000000 0.000000 -89.951546 -128.212341 382.234833
12 235.964890 -300.705902 0.000000 0.000000 -89.951546 -128.212341 382.234833
[Bip01_Head]
11 213.442169 185.722717 11.688397 4.962490 2.797846 -43.898743 283.173279
12 213.441971 185.723450 11.679542 4.965024 2.937652 -43.899414 283.173248
[eye_left_bone]
11 -24.626970 125.451866 -64.772606 0.000000 -90.000000 -99.840431 143.318359
12 -24.626970 125.451866 -64.772606 0.000000 -90.000000 -99.840431 143.318359
[eye_right_bone]
11 -24.626970 125.451866 64.327362 0.000000 -89.980217 80.156380 143.117676
12 -24.626970 125.451866 64.327362 0.000000 -89.965736 80.156380 143.117676
[L_forearm]
11 322.776093 0.000000 -0.000119 0.000119 -0.002344 -95.807457 322.776093
12 322.776093 0.000000 -0.000119 0.000119 -0.002344 -95.834129 322.776093
[L_front_hand]
11 241.149185 -0.042021 -3.300071 -178.667953 -1.835447 -27.422350 241.171753
12 241.149185 -0.042021 -3.300071 -178.636749 -1.838020 -27.422979 241.171753
[L_weapon_bone]
11 156.183838 0.000000 0.000000 0.000014 0.000007 0.000001 156.183838
12 156.183838 0.000000 0.000000 0.000014 0.000007 0.000001 156.183838
[L_front_hand01_01]
11 86.095154 20.947098 -0.655860 -0.340755 -0.496208 72.096481 88.609184
12 86.095154 20.947098 -0.655860 -0.322964 -0.505554 70.186295 88.609184
[L_front_hand02_01]
11 86.935165 -11.437475 24.513514 149.544266 -58.335350 -55.710854 91.046425
12 86.935165 -11.437475 24.513514 146.960190 -57.330456 -52.657890 91.046425
[L_front_hand03_01]
11 86.637497 -14.123976 -20.424902 -149.397461 56.551064 -57.336918 90.126129
12 86.637497 -14.123976 -20.424902 -146.989075 55.546074 -54.434807 90.126129
[L_front_hand01_02]
11 71.020905 -0.000179 0.000030 0.000317 -0.002326 -105.506187 71.020905
12 71.020905 -0.000179 0.000030 0.000316 -0.002326 -105.475128 71.020905
[L_front_hand02_02]
11 71.020927 -0.000119 0.000060 0.000317 -0.002326 -105.506187 71.020927
12 71.020927 -0.000119 0.000060 0.000316 -0.002326 -105.475128 71.020927
[L_front_hand03_02]
11 71.020905 -0.000060 0.000060 0.000317 -0.002326 -105.506187 71.020905
12 71.020905 -0.000060 0.000060 0.000316 -0.002326 -105.475128 71.020905
[R_forearm]
11 322.776428 -0.000060 0.000030 0.209504 0.012586 -94.339050 322.776428
12 322.776428 -0.000060 0.000030 0.209502 0.012611 -94.352539 322.776428
[R_front_hand]
11 238.847015 -0.006795 2.210259 -2.635298 -10.645461 -26.312506 238.857239
12 238.847015 -0.006795 2.210259 -2.472657 -10.642776 -26.311501 238.857239
[R_weapon_bone]
11 155.664093 0.002503 -0.000030 0.003487 0.001180 -90.988930 155.664078
12 155.664093 0.002503 -0.000030 0.003487 0.001180 -90.988930 155.664078
[R_front_hand01_01]
11 87.624611 14.231146 22.918642 -149.707169 -58.394505 56.007458 91.683487
12 87.624611 14.231146 22.918642 -146.976166 -57.336147 52.779388 91.683487
[R_front_hand02_01]
11 89.356956 14.367283 -19.491137 149.983444 56.758789 58.275921 92.579636
12 89.356956 14.367283 -19.491137 147.400665 55.711205 55.166904 92.579636
[R_front_hand03_01]
11 87.286232 -22.307278 -0.143439 0.134949 -0.432464 -72.452232 90.091743
12 87.286232 -22.307278 -0.143439 0.123256 -0.437630 -70.429710 90.091743
[R_front_hand01_02]
11 71.020905 0.000060 0.000119 0.002323 -0.000334 106.381721 71.020905
12 71.020905 0.000060 0.000119 0.002323 -0.000334 106.381714 71.020905
[R_front_hand02_02]
11 71.020844 -0.000030 -0.000119 0.002323 -0.000334 106.381721 71.020836
12 71.020844 -0.000030 -0.000119 0.002323 -0.000334 106.381714 71.020836
[R_front_hand03_02]
11 71.020905 0.000000 0.000030 0.002323 -0.000334 106.381721 71.020905
12 71.020905 0.000000 0.000030 0.002323 -0.000334 106.381714 71.020905
[null_rope01_connect]
11 328.732483 0.000000 -0.000238 -153.686615 -51.776447 -178.423523 328.732483
12 328.732483 0.000000 -0.000238 -153.093903 -58.001297 -179.411041 328.732483
[Rope1_Seg01]
11 -0.000035 0.000031 0.000125 131.843277 44.166103 168.312912 0.000133
12 -0.000034 0.000031 0.000122 132.085922 40.692436 171.973312 0.000130
[Rope1_Seg02]
11 139.999863 -0.000179 0.000000 4.143462 -6.847515 -3.350269 139.999863
12 139.999863 -0.000179 0.000000 4.170651 -8.184440 -1.701019 139.999863
[Rope1_Seg03]
11 139.999924 0.000060 -0.000060 6.290784 -11.995453 -5.342727 139.999924
12 139.999924 0.000060 -0.000060 5.434215 -14.479081 -2.281307 139.999924
[Rope1_Seg04]
11 139.999924 -0.000060 -0.000119 9.719466 -25.381222 -9.940123 139.999924
12 139.999924 -0.000060 -0.000119 4.632190 -28.823771 -2.671282 139.999924
[Rope1_Seg05]
11 139.999832 0.000119 -0.000060 -0.229386 -7.911762 6.063531 139.999832
12 139.999832 0.000119 -0.000060 -1.329108 -13.505134 5.340603 139.999832
[Rope1_Seg06]
11 139.999954 0.000119 -0.000060 -0.030609 -1.565889 2.722717 139.999954
12 139.999954 0.000119 -0.000060 -0.439275 -3.711071 2.000266 139.999954
[Rope1_Seg07]
11 139.999985 0.000060 0.000000 -0.037879 -1.630194 1.040909 139.999985
12 139.999985 0.000060 0.000000 -0.447360 -2.562203 0.832865 139.999985
[Rope1_Seg09]
11 121.602913 0.000119 -0.000089 -89.793175 -1.359789 0.847147 121.602913
12 121.602913 0.000119 -0.000089 -89.793175 -1.359789 0.847147 121.602913
[L_mid_hand01]
11 103.859421 1.038730 8.195221 115.405022 -54.702576 -21.718946 104.187431
12 103.859421 1.038730 8.195221 112.987701 -50.601227 -18.681456 104.187431
[L_mid_hand02]
11 105.572853 -4.139662 -10.864139 -156.173538 38.796768 -54.226353 106.211075
12 105.572853 -4.139662 -10.864139 -153.018723 36.866009 -49.082401 106.211075
[L_mid_hand03]
11 104.641464 17.579376 -3.913581 -10.557028 15.605442 59.191399 106.179977
12 104.641464 17.579376 -3.913581 -11.755013 14.733717 54.618225 106.179977
[null_rope02_connect]
11 328.732849 0.000179 -0.000119 -130.900665 60.202045 11.034324 328.732849
12 328.732849 0.000179 -0.000119 -129.440094 63.286800 16.096464 328.732849
[Rope2_Seg01]
11 0.000045 0.000125 0.000000 -92.766754 57.750690 5.744803 0.000133
12 0.000046 0.000122 0.000000 -95.509224 59.698933 4.367866 0.000130
[Rope2_Seg02]
11 139.999741 -0.000060 -0.000119 -1.484830 -1.307900 2.793823 139.999756
12 139.999741 -0.000060 -0.000119 -0.361394 -2.095957 1.457645 139.999756
[Rope2_Seg03]
11 140.000107 0.000030 0.000000 -1.868074 -1.973086 3.952676 140.000107
12 140.000107 0.000030 0.000000 -0.444384 -2.894519 1.986960 140.000107
[Rope2_Seg04]
11 139.999802 0.000000 -0.000060 -3.186395 -1.225108 6.669590 139.999802
12 139.999802 0.000000 -0.000060 -0.156978 -0.121498 0.352974 139.999802
[Rope2_Seg05]
11 139.999985 -0.000060 0.000119 -2.584674 -10.010649 9.654002 139.999985
12 139.999985 -0.000060 0.000119 -2.388810 -15.269239 10.036034 139.999985
[Rope2_Seg06]
11 139.999893 -0.000030 -0.000119 -0.293569 -12.916954 4.102218 139.999893
12 139.999893 -0.000030 -0.000119 -2.539687 -20.899914 13.228193 139.999893
[Rope2_Seg07]
11 139.999893 0.000060 -0.000060 -0.226517 -6.635461 3.165941 139.999893
12 139.999893 0.000060 -0.000060 -0.094331 -9.084237 5.518289 139.999893
[Rope2_Seg09]
11 121.338966 0.000089 -0.000060 33.793236 -1.359788 -0.847141 121.338966
12 121.338966 0.000089 -0.000060 33.793236 -1.359788 -0.847141 121.338966
[R_mid_hand01]
11 104.680779 11.144459 -10.335981 -22.984863 42.734234 60.718655 105.778534
12 104.680779 11.144459 -10.335981 -25.192726 41.648338 57.439434 105.778534
[R_mid_hand02]
11 104.070427 2.443552 8.231699 58.419525 -61.729706 28.969120 104.424065
12 104.070427 2.443552 8.231699 60.800945 -59.436069 26.232430 104.424065
[R_mid_hand03]
11 106.028137 -11.221827 -5.996406 -175.069138 15.041784 -68.893349 106.788818
12 106.028137 -11.221827 -5.996406 -174.361145 14.799507 -66.152634 106.788818
[spine02]
11 129.756927 0.001550 0.000119 -1.023899 -3.926965 6.770993 129.756927
12 129.756927 0.001550 0.000119 -1.023219 -3.927141 6.751145 129.756927
[spine03]
11 78.614037 0.081676 -4.898987 1.040681 4.146420 4.212376 78.766571
12 78.614029 0.081665 -4.898987 1.041578 4.146196 4.237169 78.766563
[pelvis]
11 169.435242 0.051022 0.000000 0.019518 -0.190233 -10.721436 169.435257
12 169.435242 0.051022 0.000000 0.019477 -0.190238 -10.696597 169.435257
[null_rope03_connect]
11 -1.257226 -2.466202 137.391083 -153.574890 -88.051163 -134.562943 137.418976
12 -1.257226 -2.466202 137.391083 -150.089951 -87.818779 -137.569214 137.418976
[null_rope04_connect]
11 -1.259640 -2.480268 -137.844437 -153.574890 -88.051163 -134.562943 137.872513
12 -1.259640 -2.480268 -137.844437 -150.089951 -87.818779 -137.569214 137.872513
[Rope3_Seg01]
11 0.000000 0.000000 0.000000 -145.801010 -33.513367 -53.564125 0.000000
12 0.000000 0.000000 0.000000 -144.289703 -38.594376 -60.486038 0.000000
[Rope3_Seg02]
11 139.999924 -0.000119 0.000060 0.060677 -7.335697 -13.313785 139.999924
12 139.999924 -0.000119 0.000060 -0.696436 -7.356062 -16.209126 139.999924
[Rope3_Seg03]
11 139.999924 -0.000119 0.000119 -0.820708 -6.228663 -11.563854 139.999924
12 139.999924 -0.000119 0.000119 -2.995907 -6.117805 -14.668530 139.999924
[Rope3_Seg04]
11 139.999924 0.000119 0.000000 -0.940243 -4.875646 -8.525411 139.999924
12 139.999924 0.000119 0.000000 -7.443108 -3.479272 -11.434423 139.999924
[Rope3_Seg05]
11 139.999924 -0.000238 0.000060 -3.232020 -2.898474 -6.353942 139.999924
12 139.999924 -0.000238 0.000060 -9.331944 -1.615894 -7.380264 139.999924
[Rope3_Seg06]
11 139.999893 -0.000119 -0.000060 -10.316031 -1.567336 -6.082618 139.999893
12 139.999893 -0.000119 -0.000060 -12.839279 -0.926132 -5.849356 139.999893
[Rope3_Seg07]
11 139.999771 0.000060 -0.000119 -33.767326 -0.017886 -6.487905 139.999771
12 139.999771 0.000060 -0.000119 -28.258167 -0.074506 -5.714293 139.999771
[Rope3_Seg08]
11 139.999985 -0.000060 0.000000 -42.487297 2.327790 -3.918081 139.999985
12 139.999985 -0.000060 0.000000 -39.040482 2.150673 -3.652770 139.999985
[Rope3_Seg09]
11 90.185997 -0.000179 -0.000060 89.793228 -1.359877 -0.847183 90.185997
12 90.185997 -0.000179 -0.000060 89.793228 -1.359877 -0.847183 90.185997
[R_rear_hand01]
11 103.366196 -6.073594 -10.757982 -173.599045 23.870514 -63.902164 104.101845
12 103.366196 -6.073594 -10.757982 -172.199188 23.472191 -60.427750 104.101845
[R_rear_hand02]
11 100.509819 12.039542 -7.992327 -19.192892 34.332623 61.336498 101.543350
12 100.509819 12.039542 -7.992327 -21.205954 33.223911 57.720810 101.543350
[R_rear_hand03]
11 101.539970 5.215704 5.435467 77.403587 -62.983585 15.125125 101.819031
12 101.539970 5.215704 5.435467 78.624985 -59.850563 13.735100 101.819031
[Rope4_Seg01]
11 0.000010 0.000031 -0.000125 72.906197 -36.053894 -138.917831 0.000129
12 0.000010 0.000031 -0.000122 72.421158 -35.884068 -138.270401 0.000126
[Rope4_Seg02]
11 139.999985 0.000060 0.000119 1.655352 -12.279063 -4.863906 139.999985
12 139.999985 0.000060 0.000119 2.625505 -13.491790 -4.524200 139.999985
[Rope4_Seg03]
11 139.999924 0.000000 -0.000238 4.991553 -16.573500 -6.240678 139.999924
12 139.999924 0.000000 -0.000238 7.875647 -17.031069 -5.114835 139.999924
[Rope4_Seg04]
11 139.999985 0.000000 0.000119 30.960606 -14.629488 -2.963861 139.999985
12 139.999985 0.000000 0.000119 24.147783 -13.466850 -3.024001 139.999985
[Rope4_Seg05]
11 139.999802 -0.000060 -0.000119 118.417969 -15.150017 3.555800 139.999802
12 139.999802 -0.000060 -0.000119 105.939056 -12.583899 3.645707 139.999802
[Rope4_Seg06]
11 139.999924 0.000000 0.000060 21.169880 12.573384 18.036673 139.999924
12 139.999924 0.000000 0.000060 21.969007 12.456469 17.464378 139.999924
[Rope4_Seg07]
11 139.999802 0.000000 0.000000 4.840496 14.366154 10.673236 139.999802
12 139.999802 0.000000 0.000000 5.372261 18.975754 12.909044 139.999802
[Rope4_Seg08]
11 139.999924 0.000000 0.000119 -0.627298 6.743272 4.047946 139.999924
12 139.999924 0.000000 0.000119 -0.350224 9.078750 5.448229 139.999924
[Rope4_Seg09]
11 90.185791 0.000060 0.000060 -135.617828 2.228885 0.850567 90.185791
12 90.185791 0.000060 0.000060 -135.617828 2.228885 0.850567 90.185791
[L_rear_hand01]
11 101.696655 -8.392275 -7.654577 -28.953402 -26.963970 137.645660 102.329041
12 101.696655 -8.392275 -7.654577 -30.967802 -24.555588 142.276382 102.329041
[L_rear_hand02]
11 102.726799 -1.568258 5.773216 81.888351 45.378387 170.342453 102.900848
12 102.726799 -1.568258 5.773216 82.497200 40.606583 171.238342 102.900848
[L_rear_hand03]
11 104.552910 9.721220 -10.420293 -166.314163 -20.719036 -135.138702 105.519653
12 104.552910 9.721220 -10.420293 -164.603775 -19.511108 -140.104065 105.519653
